<svg width="212" height="60" viewBox="0 0 212 60" fill="none" xmlns="http://www.w3.org/2000/svg">
<rect y="29" width="212" height="30" fill="#EC5713"/>
<g clip-path="url(#clip0_4786_26703)">
<path d="M10.0288 36.9984L14.6721 32.3551C14.7164 32.3108 14.7756 32.2857 14.837 32.2857H32.0277C32.1551 32.2857 32.2598 32.3904 32.2598 32.519V37.1634C32.2598 37.292 32.1551 37.3966 32.0277 37.3966H10.1938C9.98554 37.3966 9.88201 37.1452 10.0288 36.9984ZM25.1225 8.42427L20.4781 13.0687C20.4349 13.1119 20.3757 13.1358 20.3132 13.1358H15.2535C15.1249 13.1358 15.0202 13.0323 15.0202 12.9026V8.25929C15.0202 8.13072 15.1249 8.02605 15.2535 8.02605H24.9576C25.1658 8.02605 25.2693 8.27749 25.1225 8.42427ZM37.2524 20.5541L32.608 25.1985C32.5647 25.2418 32.5056 25.2657 32.443 25.2657H22.3236C22.1154 25.2657 22.0119 25.0153 22.1575 24.8686L26.8019 20.2253C26.8463 20.1809 26.9054 20.1559 26.9669 20.1559H37.0874C37.2945 20.1559 37.3992 20.4073 37.2524 20.5541ZM33.2156 31.8079V26.0382C33.2156 25.9756 33.2394 25.9176 33.2827 25.8744L37.9282 21.23C38.0739 21.0832 38.3253 21.1867 38.3253 21.3938V31.5143C38.3253 31.5758 38.3014 31.6349 38.257 31.6793L33.6138 36.3226C33.467 36.4694 33.2156 36.3658 33.2156 36.1587V31.8079ZM26.1261 19.5495L21.4828 24.1927C21.336 24.3395 21.0857 24.236 21.0857 24.0289V13.9084C21.0857 13.8458 21.1096 13.7878 21.1528 13.7445L25.7972 9.09897C25.944 8.95333 26.1955 9.05573 26.1955 9.26395V19.3845C26.1955 19.4459 26.1716 19.5051 26.1261 19.5495ZM15.2535 14.0915H19.8979C20.0253 14.0915 20.13 14.1951 20.13 14.3236V25.7435C20.13 25.7458 20.1311 25.7492 20.1311 25.7515C20.1311 25.7811 20.1345 25.8095 20.1402 25.8368C20.1425 25.8516 20.1482 25.8653 20.1516 25.8789C20.1561 25.8948 20.1596 25.9108 20.1664 25.9267C20.1732 25.9415 20.1823 25.9551 20.1903 25.9699C20.1971 25.9825 20.2017 25.9961 20.2108 26.0086C20.2255 26.0302 20.2426 26.0507 20.2597 26.0701C20.2631 26.0723 20.2654 26.0769 20.2699 26.0814C20.2733 26.0849 20.2779 26.0871 20.2824 26.0917C20.3006 26.1099 20.3211 26.1258 20.3416 26.1406C20.3541 26.1486 20.3678 26.1543 20.3803 26.1622C20.3951 26.169 20.4087 26.1782 20.4258 26.185C20.4406 26.1918 20.4565 26.1952 20.4736 26.1998C20.4861 26.2043 20.4997 26.21 20.5145 26.2123C20.5453 26.218 20.5771 26.2214 20.6078 26.2214H32.0277C32.1551 26.2214 32.2598 26.3249 32.2598 26.4535V31.0979C32.2598 31.2276 32.1551 31.3311 32.0277 31.3311H15.2535C15.1249 31.3311 15.0202 31.2276 15.0202 31.0979V14.3236C15.0202 14.1951 15.1249 14.0915 15.2535 14.0915ZM9.02298 13.7445L13.6674 9.09897C13.8142 8.95333 14.0656 9.05573 14.0656 9.26395V31.5143C14.0656 31.5758 14.0406 31.6349 13.9962 31.6793L9.35294 36.3226C9.20617 36.4694 8.95586 36.3658 8.95586 36.1587V13.9084C8.95586 13.8458 8.97975 13.7878 9.02298 13.7445ZM39.2207 32.0354C39.2287 32.0206 39.2378 32.0058 39.2435 31.9922C39.2503 31.9763 39.2537 31.9592 39.2583 31.9444C39.2617 31.9296 39.2674 31.916 39.2708 31.9023C39.2765 31.8739 39.2788 31.8454 39.2799 31.817V31.8079V19.678V19.6712C39.2788 19.6416 39.2765 19.6143 39.2708 19.5847C39.2674 19.5711 39.2617 19.5574 39.2583 19.5438C39.2537 19.5278 39.2503 19.5119 39.2435 19.496C39.2378 19.4812 39.2287 19.4675 39.2207 19.4527C39.2139 19.4391 39.2082 19.4266 39.2003 19.4141C39.1855 19.3913 39.1684 19.3731 39.1513 19.3538C39.1468 19.3492 39.1445 19.3447 39.14 19.3401C39.1365 19.3378 39.132 19.3356 39.1286 19.3321C39.1104 19.3139 39.0899 19.2957 39.0671 19.2821C39.0569 19.2741 39.0444 19.2696 39.033 19.2627C39.0171 19.2536 39.0023 19.2445 38.9852 19.2377C38.9716 19.232 38.9591 19.2297 38.9443 19.2252C38.9283 19.2195 38.9124 19.2138 38.8953 19.2104C38.876 19.2058 38.8555 19.2058 38.8339 19.2036C38.8248 19.2036 38.8134 19.2002 38.802 19.2002H27.3833C27.2547 19.2002 27.1501 19.0978 27.1501 18.9681V7.54818V7.54021C27.1489 7.51177 27.1466 7.48446 27.141 7.45488C27.1375 7.44009 27.1319 7.42757 27.1284 7.41392C27.1228 7.39685 27.1193 7.38206 27.1137 7.36613C27.108 7.35021 27.0989 7.33769 27.0909 7.3229C27.0841 7.30925 27.0772 7.29673 27.0704 7.28421C27.0556 7.26146 27.0386 7.24325 27.0215 7.22391C27.0169 7.21936 27.0147 7.21481 27.0101 7.21026C27.0067 7.20685 27.0021 7.20457 26.9987 7.20229C26.9794 7.18409 26.96 7.16589 26.9373 7.15223C26.9271 7.14427 26.9145 7.13972 26.9032 7.13289C26.8861 7.12379 26.8724 7.11469 26.8554 7.10786C26.8417 7.10217 26.8292 7.09989 26.8144 7.09534C26.7985 7.08965 26.7826 7.08397 26.7655 7.08055C26.745 7.076 26.7257 7.076 26.704 7.07373C26.6938 7.07373 26.6836 7.07031 26.6722 7.07031H14.5423C14.5321 7.07031 14.5207 7.07373 14.5105 7.07373C14.49 7.076 14.4695 7.076 14.4502 7.08055C14.4331 7.08397 14.4161 7.08965 14.4001 7.09534C14.3865 7.09989 14.3728 7.10217 14.3603 7.10786C14.3432 7.11469 14.3284 7.12379 14.3125 7.13289C14.3011 7.13972 14.2886 7.14427 14.2772 7.15223C14.2556 7.16589 14.2351 7.18409 14.2169 7.20229C14.2135 7.20457 14.209 7.20685 14.2044 7.21026L8.14007 13.2758C8.13666 13.2792 8.13324 13.2837 8.12983 13.2883C8.11162 13.3076 8.0957 13.327 8.0809 13.3486C8.0718 13.3611 8.06611 13.3747 8.06042 13.3873C8.05246 13.402 8.04336 13.4157 8.03653 13.4305C8.0297 13.4464 8.02629 13.4623 8.02174 13.4783C8.01719 13.4931 8.01264 13.5067 8.01036 13.5204C8.00467 13.5488 8.00126 13.5773 8.00126 13.6046C8.00126 13.608 8.00012 13.6103 8.00012 13.6137V37.8745C8.00012 37.8756 8.00126 37.8791 8.00126 37.8813C8.00126 37.9109 8.00467 37.9394 8.01036 37.9678C8.01264 37.9815 8.01719 37.9951 8.02174 38.0088C8.02629 38.0247 8.0297 38.0406 8.03653 38.0566C8.04336 38.0713 8.05246 38.085 8.06042 38.0998C8.06611 38.1123 8.0718 38.126 8.0809 38.1385C8.0957 38.1601 8.11162 38.1806 8.12983 38.1999C8.13324 38.2033 8.13666 38.2067 8.14007 38.2113C8.14348 38.2147 8.14803 38.217 8.15258 38.2215C8.17079 38.2397 8.19127 38.2557 8.21175 38.2705C8.22426 38.2784 8.23792 38.2841 8.25043 38.2921C8.26522 38.3 8.27888 38.308 8.29594 38.3148C8.31074 38.3217 8.32666 38.3251 8.34373 38.3296C8.35625 38.3342 8.3699 38.3399 8.38469 38.3421C8.41541 38.349 8.44613 38.3512 8.47799 38.3512H32.7377C32.7684 38.3512 32.8003 38.349 32.831 38.3421C32.8458 38.3399 32.8583 38.3342 32.8719 38.3296C32.889 38.3251 32.9038 38.3217 32.9197 38.3148C32.9368 38.308 32.9504 38.3 32.9652 38.2921C32.9778 38.2841 32.9914 38.2784 33.0016 38.2705C33.0244 38.2557 33.0449 38.2397 33.0631 38.2215C33.0676 38.217 33.0722 38.2147 33.0756 38.2113L39.14 32.1458C39.1445 32.1424 39.1468 32.139 39.1513 32.1344C39.1684 32.1151 39.1855 32.0946 39.2003 32.0741C39.2082 32.0616 39.2139 32.0479 39.2207 32.0354Z" fill="white"/>
<path d="M61.8276 13.595C61.8276 13.4141 61.9482 13.2924 62.1302 13.2924H65.4764C65.6573 13.2924 65.7791 13.4141 65.7791 13.595V30.0609C65.7791 30.1804 65.8382 30.2407 65.96 30.2407H71.146C71.328 30.2407 71.4475 30.3613 71.4475 30.5433V33.4982C71.4475 33.6779 71.328 33.7997 71.146 33.7997H62.1302C61.9482 33.7997 61.8276 33.6779 61.8276 33.4982V13.595Z" fill="white"/>
<path d="M75.8477 13.595C75.8477 13.4141 75.9683 13.2924 76.1503 13.2924H79.4965C79.6774 13.2924 79.7992 13.4141 79.7992 13.595V33.4982C79.7992 33.6779 79.6774 33.7997 79.4965 33.7997H76.1503C75.9683 33.7997 75.8477 33.6779 75.8477 33.4982V13.595Z" fill="white"/>
<path d="M89.1154 30.4517H89.9903C91.6492 30.4517 92.2204 29.7884 92.2204 27.6175C92.2204 25.4762 91.6492 24.8425 89.9903 24.8425H89.1154C88.9948 24.8425 88.9345 24.9039 88.9345 25.0234V30.272C88.9345 30.3914 88.9948 30.4517 89.1154 30.4517ZM89.9903 21.7068C91.5275 21.7068 92.0099 21.1936 92.0099 19.1741C92.0099 17.1841 91.5275 16.6402 89.9903 16.6402H89.1154C88.9948 16.6402 88.9345 16.7006 88.9345 16.8223V21.5259C88.9345 21.6465 88.9948 21.7068 89.1154 21.7068H89.9903ZM84.983 13.5956C84.983 13.4135 85.1047 13.2929 85.2856 13.2929H90.4716C94.2718 13.2929 95.9614 15.0428 95.9614 18.6302C95.9614 21.1345 95.116 22.4008 93.6085 23.0641V23.1244C95.116 23.5761 96.2026 25.0234 96.2026 27.7689C96.2026 32.2915 94.1512 33.7991 90.1405 33.7991H85.2856C85.1047 33.7991 84.983 33.6785 84.983 33.4987V13.5956Z" fill="white"/>
<path d="M100.812 13.595C100.812 13.4141 100.933 13.2924 101.115 13.2924H110.071C110.251 13.2924 110.372 13.4141 110.372 13.595V16.551C110.372 16.7307 110.251 16.8513 110.071 16.8513H104.944C104.823 16.8513 104.764 16.9116 104.764 17.0322V21.4957C104.764 21.6163 104.823 21.6766 104.944 21.6766H109.376C109.558 21.6766 109.679 21.7972 109.679 21.9782V24.9341C109.679 25.115 109.558 25.2345 109.376 25.2345H104.944C104.823 25.2345 104.764 25.2948 104.764 25.4165V30.0609C104.764 30.1804 104.823 30.2407 104.944 30.2407H110.071C110.251 30.2407 110.372 30.3613 110.372 30.5433V33.4982C110.372 33.6779 110.251 33.7997 110.071 33.7997H101.115C100.933 33.7997 100.812 33.6779 100.812 33.4982V13.595Z" fill="white"/>
<path d="M122.191 19.5662C122.191 17.4249 121.528 16.7616 119.989 16.7616H119.116C118.994 16.7616 118.935 16.8219 118.935 16.9413V22.1899C118.935 22.3094 118.994 22.3708 119.116 22.3708H119.989C121.528 22.3708 122.191 21.7371 122.191 19.5662ZM122.915 33.7998C122.735 33.7998 122.643 33.7395 122.583 33.5586L120.261 25.7785H119.116C118.994 25.7785 118.935 25.8388 118.935 25.9582V33.4983C118.935 33.678 118.813 33.7998 118.632 33.7998H115.286C115.104 33.7998 114.983 33.678 114.983 33.4983V13.5951C114.983 13.4142 115.104 13.2925 115.286 13.2925H120.171C123.82 13.2925 126.172 15.0117 126.172 19.5662C126.172 22.1592 125.297 23.8488 123.879 24.8125L126.684 33.4983C126.744 33.6485 126.684 33.7998 126.533 33.7998H122.915Z" fill="white"/>
<path d="M133.949 33.7994C133.768 33.7994 133.646 33.6788 133.646 33.4979V17.0331C133.646 16.9114 133.587 16.8511 133.465 16.8511H130.238C130.059 16.8511 129.938 16.7305 129.938 16.5507V13.5948C129.938 13.4139 130.059 13.2933 130.238 13.2933H141.005C141.185 13.2933 141.307 13.4139 141.307 13.5948V16.5507C141.307 16.7305 141.185 16.8511 141.005 16.8511H137.778C137.658 16.8511 137.598 16.9114 137.598 17.0331V33.4979C137.598 33.6788 137.477 33.7994 137.295 33.7994H133.949Z" fill="white"/>
<path d="M145.525 13.595C145.525 13.4141 145.646 13.2924 145.828 13.2924H149.174C149.355 13.2924 149.477 13.4141 149.477 13.595V33.4982C149.477 33.6779 149.355 33.7997 149.174 33.7997H145.828C145.646 33.7997 145.525 33.6779 145.525 33.4982V13.595Z" fill="white"/>
<path d="M154.661 13.595C154.661 13.4141 154.781 13.2924 154.964 13.2924H163.92C164.1 13.2924 164.221 13.4141 164.221 13.595V16.551C164.221 16.7307 164.1 16.8513 163.92 16.8513H158.793C158.672 16.8513 158.612 16.9116 158.612 17.0322V21.4957C158.612 21.6163 158.672 21.6766 158.793 21.6766H163.225C163.407 21.6766 163.528 21.7972 163.528 21.9782V24.9341C163.528 25.115 163.407 25.2345 163.225 25.2345H158.793C158.672 25.2345 158.612 25.2948 158.612 25.4165V30.0609C158.612 30.1804 158.672 30.2407 158.793 30.2407H163.92C164.1 30.2407 164.221 30.3613 164.221 30.5433V33.4982C164.221 33.6779 164.1 33.7997 163.92 33.7997H154.964C154.781 33.7997 154.661 33.6779 154.661 33.4982V13.595Z" fill="white"/>
<path d="M173.779 34.0706C170.069 34.0706 168.29 32.1102 168.23 28.5831C168.23 28.4021 168.29 28.2804 168.471 28.2508L171.698 27.7388C171.908 27.7081 172.029 27.798 172.029 27.9789C172.09 29.879 172.632 30.6333 173.808 30.6333C174.925 30.6333 175.437 30.061 175.437 28.1905C175.437 26.3803 175.076 25.7477 173.536 25.1447L172.301 24.6611C169.405 23.5461 168.41 22.0078 168.41 18.7219C168.41 15.0116 170.19 13.0217 173.839 13.0217C177.428 13.0217 179.115 14.8922 179.266 18.1178C179.266 18.2998 179.176 18.4193 178.996 18.45L175.92 18.9324C175.739 18.9631 175.588 18.8721 175.588 18.6912C175.557 17.2144 175.044 16.4589 173.959 16.4589C172.903 16.4589 172.391 17.1222 172.391 18.5103C172.391 20.0486 172.723 20.531 174.322 21.1636L175.557 21.646C178.362 22.7315 179.447 24.239 179.447 27.7081C179.447 31.8997 177.85 34.0706 173.779 34.0706Z" fill="white"/>
</g>
<path d="M65.8006 50.1313L65.0955 50.9199V54H62.47V39.75H65.0955V47.4502L65.4202 46.9678L67.2386 43.9619H70.365L67.452 48.0996L70.6434 54H67.6375L65.8006 50.1313ZM74.2646 43.9619L74.3389 44.9546C74.9326 44.1691 75.7088 43.7764 76.6675 43.7764C78.3931 43.7764 79.2806 44.9855 79.3301 47.4038V54H76.6953V47.5986C76.6953 47.0296 76.6087 46.6183 76.4355 46.3647C76.2686 46.105 75.9717 45.9751 75.5449 45.9751C75.0687 45.9751 74.6976 46.2194 74.4316 46.708V54H71.7969V43.9619H74.2646ZM81.2072 48.6562C81.2072 47.1348 81.566 45.9411 82.2834 45.0752C83.0008 44.2093 83.9935 43.7764 85.2614 43.7764C86.5417 43.7764 87.5406 44.2093 88.258 45.0752C88.9755 45.9411 89.3342 47.141 89.3342 48.6748V49.3149C89.3342 50.8426 88.9785 52.0363 88.2673 52.896C87.556 53.7557 86.5603 54.1855 85.28 54.1855C83.9935 54.1855 82.9916 53.7557 82.2741 52.896C81.5629 52.0301 81.2072 50.8302 81.2072 49.2964V48.6562ZM83.842 49.3149C83.842 51.1086 84.3213 52.0054 85.28 52.0054C86.1644 52.0054 86.6407 51.257 86.7087 49.7603L86.718 48.6562C86.718 47.7409 86.5912 47.0636 86.3376 46.6245C86.084 46.1792 85.7253 45.9565 85.2614 45.9565C84.8161 45.9565 84.4667 46.1792 84.2131 46.6245C83.9657 47.0636 83.842 47.7409 83.842 48.6562V49.3149ZM98.5868 49.5933L99.4867 43.9619H102.001L99.9228 54H97.7426L96.3231 48.1924L94.9037 54H92.7143L90.6361 43.9619H93.1596L94.0502 49.6025L95.3861 43.9619H97.2509L98.5868 49.5933ZM106.355 54H103.72V39.75H106.355V54ZM112.741 54.1855C111.393 54.1855 110.341 53.7835 109.587 52.9795C108.832 52.1755 108.455 51.0251 108.455 49.5283V48.7305C108.455 47.1471 108.801 45.9256 109.494 45.0659C110.187 44.2062 111.179 43.7764 112.472 43.7764C113.734 43.7764 114.683 44.1815 115.32 44.9917C115.957 45.7957 116.282 46.9894 116.294 48.5728V49.8623H111.071C111.108 50.6045 111.272 51.1488 111.563 51.4951C111.853 51.8353 112.302 52.0054 112.908 52.0054C113.786 52.0054 114.519 51.7054 115.107 51.1055L116.137 52.6919C115.815 53.1372 115.348 53.499 114.736 53.7773C114.123 54.0495 113.458 54.1855 112.741 54.1855ZM111.09 48.0254H113.715V47.7842C113.703 47.1842 113.604 46.7297 113.418 46.4204C113.233 46.1112 112.911 45.9565 112.453 45.9565C111.996 45.9565 111.662 46.1204 111.451 46.4482C111.247 46.776 111.127 47.3018 111.09 48.0254ZM117.726 48.6748C117.726 47.0296 118.004 45.8019 118.561 44.9917C119.118 44.1815 119.928 43.7764 120.992 43.7764C121.765 43.7764 122.408 44.1104 122.921 44.7783V39.75H125.565V54H123.181L123.061 52.9795C122.522 53.7835 121.83 54.1855 120.982 54.1855C119.931 54.1855 119.127 53.7835 118.57 52.9795C118.02 52.1755 117.738 50.9941 117.726 49.4355V48.6748ZM120.361 49.3335C120.361 50.3231 120.466 51.0158 120.676 51.4116C120.887 51.8013 121.242 51.9961 121.743 51.9961C122.263 51.9961 122.655 51.7642 122.921 51.3003V46.7173C122.662 46.2225 122.272 45.9751 121.752 45.9751C121.27 45.9751 120.917 46.1699 120.695 46.5596C120.472 46.9492 120.361 47.6419 120.361 48.6377V49.3335ZM127.489 48.6748C127.489 47.0296 127.786 45.8019 128.38 44.9917C128.973 44.1815 129.805 43.7764 130.875 43.7764C131.784 43.7764 132.486 44.1351 132.981 44.8525L133.083 43.9619H135.449V54C135.449 55.2803 135.09 56.2575 134.373 56.9316C133.655 57.612 132.626 57.9521 131.283 57.9521C130.733 57.9521 130.155 57.8408 129.549 57.6182C128.942 57.4017 128.491 57.1234 128.194 56.7832L129.075 54.9648C129.323 55.2246 129.644 55.4349 130.04 55.5957C130.436 55.7627 130.81 55.8462 131.163 55.8462C131.75 55.8462 132.171 55.7039 132.425 55.4194C132.684 55.1411 132.817 54.6896 132.823 54.0649V53.2021C132.322 53.8577 131.67 54.1855 130.866 54.1855C129.796 54.1855 128.967 53.7712 128.38 52.9424C127.798 52.1074 127.501 50.9323 127.489 49.417V48.6748ZM130.114 49.3335C130.114 50.2612 130.235 50.9385 130.476 51.3652C130.717 51.7858 131.101 51.9961 131.627 51.9961C132.165 51.9961 132.564 51.8013 132.823 51.4116V46.6152C132.551 46.1885 132.159 45.9751 131.645 45.9751C131.126 45.9751 130.739 46.1885 130.486 46.6152C130.238 47.042 130.114 47.7285 130.114 48.6748V49.3335ZM141.714 54.1855C140.366 54.1855 139.315 53.7835 138.56 52.9795C137.805 52.1755 137.428 51.0251 137.428 49.5283V48.7305C137.428 47.1471 137.774 45.9256 138.467 45.0659C139.16 44.2062 140.153 43.7764 141.445 43.7764C142.707 43.7764 143.656 44.1815 144.293 44.9917C144.93 45.7957 145.255 46.9894 145.267 48.5728V49.8623H140.044C140.081 50.6045 140.245 51.1488 140.536 51.4951C140.827 51.8353 141.275 52.0054 141.881 52.0054C142.76 52.0054 143.492 51.7054 144.08 51.1055L145.11 52.6919C144.788 53.1372 144.321 53.499 143.709 53.7773C143.097 54.0495 142.432 54.1855 141.714 54.1855ZM140.063 48.0254H142.688V47.7842C142.676 47.1842 142.577 46.7297 142.392 46.4204C142.206 46.1112 141.884 45.9565 141.427 45.9565C140.969 45.9565 140.635 46.1204 140.425 46.4482C140.221 46.776 140.1 47.3018 140.063 48.0254ZM154.291 44.8433C154.86 44.132 155.559 43.7764 156.388 43.7764C157.303 43.7764 157.999 44.098 158.475 44.7412C158.952 45.3844 159.193 46.3431 159.199 47.6172V54H156.564V47.645C156.564 47.0575 156.471 46.6338 156.286 46.374C156.107 46.1081 155.813 45.9751 155.405 45.9751C154.928 45.9751 154.557 46.1947 154.291 46.6338V54H151.666V39.75H154.291V44.8433ZM166.318 53.0815C165.774 53.8175 165.044 54.1855 164.128 54.1855C163.207 54.1855 162.508 53.8701 162.032 53.2393C161.556 52.6022 161.317 51.6776 161.317 50.4653V43.9619H163.943V50.5303C163.955 51.5075 164.28 51.9961 164.917 51.9961C165.517 51.9961 165.95 51.7363 166.216 51.2168V43.9619H168.86V54H166.392L166.318 53.0815ZM178.864 49.3057C178.864 50.9323 178.604 52.1538 178.085 52.9702C177.565 53.7804 176.749 54.1855 175.635 54.1855C174.763 54.1855 174.064 53.7928 173.539 53.0073L173.455 54H171.034V39.75H173.659V44.7783C174.154 44.1104 174.807 43.7764 175.617 43.7764C176.73 43.7764 177.547 44.1815 178.066 44.9917C178.586 45.7957 178.852 46.9771 178.864 48.5356V49.3057ZM176.238 48.647C176.238 47.5894 176.136 46.8812 175.932 46.5225C175.728 46.1576 175.373 45.9751 174.865 45.9751C174.315 45.9751 173.913 46.2256 173.659 46.7266V51.3003C173.894 51.7703 174.303 52.0054 174.884 52.0054C175.385 52.0054 175.731 51.8415 175.923 51.5137C176.121 51.1859 176.226 50.5488 176.238 49.6025V48.647Z" fill="white"/>
<defs>
<clipPath id="clip0_4786_26703">
<rect width="171.733" height="32" fill="white" transform="translate(8 7)"/>
</clipPath>
</defs>
</svg>
